<svg xmlns="http://www.w3.org/2000/svg" viewBox="0 0 15.11 15.04"><defs><style>.cls-1{fill:#0a3e72;}</style></defs><title>Contact</title><g id="Layer_2" data-name="Layer 2"><g id="Layer_1-2" data-name="Layer 1"><g id="ryGIXp.tif"><path class="cls-1" d="M3.51,0l.1,0A.4.4,0,0,1,4,.25L5.64,3.07a1.4,1.4,0,0,0,.1.16.92.92,0,0,1,0,1.16,5.54,5.54,0,0,1-.7.67c-.15.13-.32.23-.47.36a2.44,2.44,0,0,0-.35.37.39.39,0,0,0,0,.45,11,11,0,0,0,4.67,4.67.42.42,0,0,0,.52-.05c.15-.15.3-.31.44-.47s.4-.5.61-.73a1.74,1.74,0,0,1,.37-.3,1,1,0,0,1,1,0l2.68,1.55a1.24,1.24,0,0,1,.58,1.33,2.94,2.94,0,0,1-2.19,2.5,5.92,5.92,0,0,1-4.45-.25A15.8,15.8,0,0,1,1.2,7.91,8.61,8.61,0,0,1,.08,4.8c0-.18,0-.37-.08-.55V3.42l0-.14A10.29,10.29,0,0,1,.27,2.15,3,3,0,0,1,2.43.1L3,0Z"/></g></g></g></svg>