<svg xmlns="http://www.w3.org/2000/svg" viewBox="0 0 12.27 16"><defs><style>.cls-1{fill:#0a3e72;}</style></defs><title>Location</title><g id="Layer_2" data-name="Layer 2"><g id="Layer_1-2" data-name="Layer 1"><g id="SmpWc4.tif"><path class="cls-1" d="M5.8,0h.69L7,.06A6.35,6.35,0,0,1,9.64,1,5.53,5.53,0,0,1,12,3.81a4.37,4.37,0,0,1,.14,2.81A13.82,13.82,0,0,1,11,9.2a49.82,49.82,0,0,1-4.64,6.68c-.13.16-.21.16-.33,0A49,49,0,0,1,1.34,9.19,12,12,0,0,1,.19,6.6C.1,6.29.06,6,0,5.66V5.44c0-.31.06-.61.12-.91a5.31,5.31,0,0,1,1.7-2.91A6.09,6.09,0,0,1,4.63.18C5,.1,5.41.06,5.8,0Zm.35,7.54a2.1,2.1,0,0,0,2.19-2,2.11,2.11,0,0,0-2.2-2A2.1,2.1,0,0,0,4,5.55,2.1,2.1,0,0,0,6.15,7.54Z"/></g></g></g></svg>