<svg xmlns="http://www.w3.org/2000/svg" viewBox="0 0 56.6 56.6"><defs><style>.cls-1{fill:#ff5e15;}.cls-2{fill:#fff;}</style></defs><title>Rcc</title><g id="Layer_2" data-name="Layer 2"><g id="Layer_1-2" data-name="Layer 1"><circle class="cls-1" cx="28.3" cy="28.3" r="28.3"/><path class="cls-2" d="M13.39,29.08l29.78-5.67V43.48H13.39Z"/><path class="cls-2" d="M26,21v4.48l-5.23.95h-5.4l-.15,1-.64.21-.15-1.27-1.56-.14,0-.64,1.6-.16V21l-1.55-.12,0-.63,1.6-.17V15.66l-1.54-.13v-.64l1.54-.14.13-1.58h.66l.1,1.54H19.8l.09-1.53.68-.06.11,1.61h4.46l.13-1.56h.66l.1,1.54h4.49l.08-1.52.69-.08.1,1.62h4.46L36,13.18h.67l.1,1.53h4.48l.09-1.53.68-.06.11,1.61,1.57.16,0,.63-1.56.14v4.45l1.56.12.06.65L42.15,21,42,22.39l-.64.18L41.22,21H36.75v2.29l-.83.27V21H31.36V24.4l-.76.23V21ZM25.14,21a25.23,25.23,0,0,0-4.46.12v4.37h4.46Zm-9.81-.88h4.46V15.67H15.33Zm5.39-4.44v4.46h4.41V15.65ZM26,20.1h4.49V15.7H26Zm5.39-4.44V20.1h4.43V15.66Zm5.35,0V20.1H41.2V15.65ZM15.33,21v4.45h4.43V21Z"/></g></g></svg>