<svg xmlns="http://www.w3.org/2000/svg" viewBox="0 0 56.6 56.6"><defs><style>.cls-1{fill:#ff5e15;}.cls-2{fill:#fff;}</style></defs><title>Civil</title><g id="Layer_2" data-name="Layer 2"><g id="Layer_1-2" data-name="Layer 1"><circle class="cls-1" cx="28.3" cy="28.3" r="28.3"/><path class="cls-2" d="M21.53,41.09l-2,2.06-4-3.93c.59-.58,1.19-1.19,1.82-1.78.25-.24.26-.4.11-.73-.46-1-.87-2-1.24-3-.12-.36-.27-.48-.63-.47-.83,0-1.66,0-2.55,0V30.5h7.54a7.66,7.66,0,0,0,3.55,6.39,7.41,7.41,0,0,0,4.72,1.17,7.71,7.71,0,0,0,7-7.56h7.53v2.74c-.82,0-1.61,0-2.4,0a.68.68,0,0,0-.81.58,30.66,30.66,0,0,1-1.22,2.9c-.13.29-.16.46.09.7.63.58,1.24,1.2,1.91,1.86-.69.68-1.34,1.32-2,2l-1.93,1.95-2-2.12-4,1.66v3H25.55V42.74Z"/><path class="cls-2" d="M15.82,23.9a12.24,12.24,0,0,1,8.12-10.43v3.9H25V10.91H27.7v3.2h1.09v-3.2h2.77v6.46h1.07V13.52c3.4.94,7.6,4.94,8.07,10.38Z"/><path class="cls-2" d="M28.35,25H42.16c1,0,1.34.37,1.37,1.34,0,1.6-.23,1.95-1.92,1.94-9,0-18.07,0-27.1,0-1.12,0-1.45-.34-1.44-1.47,0-1.61.2-1.8,1.83-1.8Z"/></g></g></svg>