<svg xmlns="http://www.w3.org/2000/svg" viewBox="0 0 15.04 10.9"><defs><style>.cls-1{fill:#0a3e72;}</style></defs><title>E-mail</title><g id="Layer_2" data-name="Layer 2"><g id="Layer_1-2" data-name="Layer 1"><g id="iCwu6h"><path class="cls-1" d="M7.42,7.3,15,.66A1,1,0,0,0,14,0C9.68,0,5.36,0,1,0A1.61,1.61,0,0,0,.17.37C0,.53-.07.77.2,1,2.6,3.08,5,5.17,7.42,7.3ZM0,10.28a1.08,1.08,0,0,0,1.11.62H13.94a1.57,1.57,0,0,0,.68-.15c.44-.24.46-.48.08-.81L10.82,6.54l-.54-.46L8,8.07c-.47.41-.67.41-1.15,0L4.69,6.19ZM15,9v-7L11,5.44ZM4,5.55,0,2.1V9Z"/><path class="cls-1" d="M7.42,7.3C5,5.17,2.6,3.08.2,1-.07.77,0,.53.17.37A1.61,1.61,0,0,1,1,0C5.36,0,9.68,0,14,0a1,1,0,0,1,1,.66Z"/><path class="cls-1" d="M0,10.28,4.69,6.19,6.84,8.07c.48.41.68.41,1.15,0l2.29-2,.54.46L14.7,9.93c.38.33.36.57-.08.81a1.57,1.57,0,0,1-.68.15H1.12A1.08,1.08,0,0,1,0,10.28Z"/><path class="cls-1" d="M15,9,11,5.44l4-3.52Z"/><path class="cls-1" d="M4,5.55,0,9V2.1Z"/></g></g></g></svg>