<svg xmlns="http://www.w3.org/2000/svg" viewBox="0 0 56.28 56.28"><defs><style>.cls-1{fill:#f05f22;}.cls-2{fill:#fff;}</style></defs><title>Mansonary work</title><g id="Layer_2" data-name="Layer 2"><g id="Layer_1-2" data-name="Layer 1"><circle class="cls-1" cx="28.14" cy="28.14" r="28.14"/><path class="cls-2" d="M25,27.25c1.61-.76,1.92-2.22,1.68-4a3.23,3.23,0,0,1,0-.54c0-1.36.16-1.53,1.33-1.54s2.4-.05,3.59,0c.79.05,1-.35,1.2-1.16.41-1.86.94-3.69,1.45-5.53a1.34,1.34,0,0,1,1.49-1.08c1.94,0,3.88,0,5.82,0,.77,0,1,.33,1,1.17q0,13.56,0,27.11c0,.85-.25,1.16-1,1.16q-13.35,0-26.68,0c-.79,0-1.11-.36-1.09-1.24,0-1.24,0-2.48,0-3.72,0-.79.32-1.14,1-1.13a7.29,7.29,0,0,1,1.55,0c1.76.38,3.11-.52,4.33-1.76A1.7,1.7,0,0,0,21,34c.05-1.16,0-2.33,0-3.5,0-1.35.13-1.61,1.35-1.44,1.4.19,2.16-.47,2.64-1.82Zm16.53.95c0-4.09,0-8.17,0-12.25,0-1-.34-1.44-1.26-1.4q-1.84.09-3.69,0a1.33,1.33,0,0,0-1.41,1,18.7,18.7,0,0,0-1.41,6.76c-.07,2.63-.74,3.48-3,4.07A37.35,37.35,0,0,0,27,27.47c-1.51.57-1.73,1.33-1,2.88.82,1.8.46,3.38-1.1,4.38a7.51,7.51,0,0,1-2.16.93c-2.12.55-3.32,2.1-4,4.32-.43,1.44-.27,1.72,1,1.72H40.16c1.24,0,1.34-.11,1.34-1.48Q41.52,34.21,41.51,28.2Z"/><path class="cls-2" d="M26.75,13.43c1.51,0,3,0,4.55,0,.74,0,1.07.34,1.06,1.17,0,1.23,0,2.47,0,3.71,0,.82-.3,1.21-1,1.21H22c-.68,0-1-.34-1-1.12,0-1.27,0-2.55,0-3.82,0-.85.36-1.15,1.08-1.14C23.65,13.45,25.2,13.44,26.75,13.43Z"/><path class="cls-2" d="M25,27.25l0,0c-3.43,0-6.85,0-10.28.05-.71,0-1-.36-1-1.13,0-1.28,0-2.56,0-3.83,0-.79.32-1.13,1-1.12h9.32c.69,0,1,.37,1,1.14C25,24,25,25.61,25,27.25Z"/><path class="cls-2" d="M16.63,19.52c-3.28,0-2.86.39-2.86-3.18,0-3.25-.36-2.89,2.59-2.9.65,0,1.3,0,1.94,0s1.15.27,1.12,1.19q0,1.86,0,3.72c0,.85-.32,1.2-1.05,1.18S17.21,19.52,16.63,19.52Z"/><path class="cls-2" d="M16.6,29c3.25,0,2.8-.46,2.81,3.18,0,3.23.33,2.89-2.59,2.9-.7,0-1.41,0-2.12,0s-.94-.34-.94-1.06c0-1.35,0-2.69,0-4,0-.69.31-1,.9-1S16,29,16.6,29Z"/><path class="cls-1" d="M41.51,28.2q0,6,0,12c0,1.37-.1,1.48-1.34,1.48H19.78c-1.3,0-1.46-.28-1-1.72.66-2.22,1.86-3.77,4-4.32a7.51,7.51,0,0,0,2.16-.93c1.56-1,1.92-2.58,1.1-4.38-.71-1.55-.49-2.31,1-2.88a37.35,37.35,0,0,1,3.75-1.08c2.25-.59,2.92-1.44,3-4.07a18.7,18.7,0,0,1,1.41-6.76,1.33,1.33,0,0,1,1.41-1q1.84.09,3.69,0c.92,0,1.27.35,1.26,1.4C41.49,20,41.51,24.11,41.51,28.2Z"/></g></g></svg>