<svg xmlns="http://www.w3.org/2000/svg" viewBox="0 0 56.28 56.28"><defs><style>.cls-1{fill:#f05f22;}.cls-2{fill:#fff;}</style></defs><title>Plumbing</title><g id="Layer_2" data-name="Layer 2"><g id="Layer_1-2" data-name="Layer 1"><circle class="cls-1" cx="28.14" cy="28.14" r="28.14"/><path class="cls-2" d="M23.14,21l2.25-2.24q3.08-3.08,6.16-6.16a1.11,1.11,0,0,1,1.8,0l.86.86a1.14,1.14,0,0,1,.27,1.43c-.07.15-.14.3-.22.49.28-.11.51-.22.76-.31a.92.92,0,0,1,.95.19c.54.5,1.07,1,1.6,1.56s1.25,1.25,1.88,1.88a1.17,1.17,0,0,1,.16,1.68l-1.94,2.88a.76.76,0,0,0-.11.26l.18-.1,2.87-2a1.15,1.15,0,0,1,1.75.15c.46.46.93.92,1.38,1.39a1.08,1.08,0,0,1,0,1.67L35.41,33l-.14.12Z"/><path class="cls-2" d="M21.51,22.65,33.63,34.76l-.14.16L31.3,37.11a1.11,1.11,0,0,1-1.78,0c-.72-.71-1.42-1.43-2.14-2.13a2.08,2.08,0,0,0-3-.14,3.82,3.82,0,0,0-.61.78c-1.37,2.07-2.73,4.16-4.12,6.22a5.74,5.74,0,0,1-1.42,1.61,3.89,3.89,0,0,1-6.08-2.57,3.69,3.69,0,0,1,1.6-3.78c2.35-1.63,4.75-3.19,7.13-4.77a2.16,2.16,0,0,0,1.08-2,2.19,2.19,0,0,0-.71-1.47l-2.11-2.12a1.11,1.11,0,0,1,0-1.79l2.19-2.19ZM16.08,41.7a1.52,1.52,0,1,0-1.51-1.52A1.54,1.54,0,0,0,16.08,41.7Z"/></g></g></svg>