<svg xmlns="http://www.w3.org/2000/svg" viewBox="0 0 56.6 56.6"><defs><style>.cls-1{fill:#ff5e15;}.cls-2{fill:#fff;}</style></defs><title>Turnkey</title><g id="Layer_2" data-name="Layer 2"><g id="Layer_1-2" data-name="Layer 1"><circle class="cls-1" cx="28.3" cy="28.3" r="28.3"/><path class="cls-2" d="M41.47,14.28l-4.61,4.57,3.59,3.51L45,17.76a5.06,5.06,0,0,1,.9,3.54,5.16,5.16,0,0,1-1.56,3.17c-.68.68-1.36,1.37-2.05,2.05a5.19,5.19,0,0,1-6.24.93.51.51,0,0,0-.74.11Q27.84,35,20.4,42.44a2.56,2.56,0,1,1-3.64-3.6c2.77-2.79,5.55-5.56,8.33-8.34l6.58-6.58a.47.47,0,0,0,.12-.67,5.22,5.22,0,0,1,.78-6.15c.75-.81,1.54-1.6,2.35-2.35A5.24,5.24,0,0,1,41.16,14C41.24,14.09,41.32,14.17,41.47,14.28Zm-23,25.24a1.21,1.21,0,0,0-1.21,1.18,1.23,1.23,0,0,0,1.22,1.22,1.18,1.18,0,0,0,1.19-1.23A1.17,1.17,0,0,0,18.5,39.52Z"/><path class="cls-2" d="M29,14.42l-3.77,3.71,1.53,1.52-2.63,2.48L28.05,26,25.8,28.11c-.33.31-.66.81-1,.83s-.64-.52-.95-.83l-2.79-2.78L19,27.57l-.88-.8-.47.45c.47.94.43,1.12-.33,1.88-.35.35-.69.71-1.06,1a1,1,0,0,1-1.56,0q-1.81-1.8-3.61-3.61a1,1,0,0,1,0-1.52c.39-.42.81-.82,1.22-1.23a1.14,1.14,0,0,1,1.7-.17l.5-.46a4.91,4.91,0,0,0-.38-.4,4.38,4.38,0,0,0-.39-.26l7.94-7.95.52.46a12.13,12.13,0,0,1,1.34-.77,17.66,17.66,0,0,1,2.67-.94A2.68,2.68,0,0,1,29,14.42Z"/><path class="cls-2" d="M29.44,35.17l4.62-4.59c.09.07.22.17.34.28l7.37,6.9c.69.65.69.88,0,1.56l-3.6,3.6c-.61.61-.87.61-1.46,0l-7-7.38C29.65,35.41,29.56,35.3,29.44,35.17Z"/></g></g></svg>