<svg xmlns="http://www.w3.org/2000/svg" viewBox="0 0 56.6 56.6"><defs><style>.cls-1{fill:#ff5e15;}.cls-2{fill:#fff;}</style></defs><title>Waterproofing</title><g id="Layer_2" data-name="Layer 2"><g id="Layer_1-2" data-name="Layer 1"><circle class="cls-1" cx="28.3" cy="28.3" r="28.3"/><path class="cls-2" d="M28.31,12.27c.86,1.29,1.66,2.43,2.4,3.62a29.4,29.4,0,0,1,3.52,7.76,10.47,10.47,0,0,1,0,6.17,6.21,6.21,0,0,1-11.94,0,10.26,10.26,0,0,1,0-6,30.45,30.45,0,0,1,4-8.71C26.94,14.21,27.6,13.32,28.31,12.27Zm3.85,10.32-.17,0c0,.92.05,1.84,0,2.76A6.18,6.18,0,0,1,29.63,30a1.37,1.37,0,0,0-.35.33,1,1,0,0,0-.09,1.07,1.14,1.14,0,0,0,1.18.52,2.63,2.63,0,0,0,2.23-1.8,8.23,8.23,0,0,0,.48-4.73A8.89,8.89,0,0,0,32.16,22.59Z"/><path class="cls-2" d="M40.94,33.85a6.61,6.61,0,0,1,3.52,1.84,3,3,0,0,1,.11,4.13A8.39,8.39,0,0,1,41.44,42a27.59,27.59,0,0,1-7.13,1.93,40.84,40.84,0,0,1-8.84.34,29.2,29.2,0,0,1-10.65-2.45,10.56,10.56,0,0,1-2.51-1.67,3,3,0,0,1,0-4.59,7.28,7.28,0,0,1,3.38-1.73,19.93,19.93,0,0,0-1.58,1.29A6.88,6.88,0,0,0,13,36.46a1.79,1.79,0,0,0,.29,2.4,7.94,7.94,0,0,0,1.8,1.3A19.9,19.9,0,0,0,21.2,42a43.34,43.34,0,0,0,13.16.16,25,25,0,0,0,6.35-1.62,7.84,7.84,0,0,0,2.45-1.51,2,2,0,0,0,.33-2.84,7.52,7.52,0,0,0-2.09-2Z"/><path class="cls-2" d="M36,33.06a5.57,5.57,0,0,1,2.14,1.1,2,2,0,0,1,.47,2.51,4.24,4.24,0,0,1-2.1,1.91A14.36,14.36,0,0,1,31.4,39.9a26.33,26.33,0,0,1-8.63-.41,8.85,8.85,0,0,1-3.5-1.44A5,5,0,0,1,18.2,37a2,2,0,0,1,.24-2.78,4,4,0,0,1,2.14-1.12c-.36.3-.66.52-.92.78a1.76,1.76,0,0,0,.2,2.95,7.74,7.74,0,0,0,3.3,1.32A25.33,25.33,0,0,0,34,38a7.16,7.16,0,0,0,2.79-1.2,1.58,1.58,0,0,0,.33-2.59C36.76,33.82,36.38,33.49,36,33.06Z"/><path class="cls-2" d="M44.07,28.64l-.9-1.8-6.53,4.48-.07-.06,4.48-6.53-1.79-.9,7.05-2.25Z"/><path class="cls-2" d="M20,31.33l-6.53-4.49-.9,1.8-2.24-7,7.05,2.24-1.8.9L20,31.26Z"/></g></g></svg>